<svg xmlns="http://www.w3.org/2000/svg" viewBox="0 0 420 242" width="420" height="242">
  <rect width="420" height="242" fill="#ffffff"/>
  <text x="210" y="20" text-anchor="middle" font-family="Helvetica,Arial,sans-serif" font-size="14" fill="#6b7380">GCT vs GCAT. Warm path = traceback. Sink = 2.</text>
  <defs><marker id="nw" markerWidth="9" markerHeight="9" refX="8" refY="4.5" orient="auto"><path d="M0,0 L9,4.5 L0,9 Z" fill="#b56a3a"/></marker></defs>
  <g font-family="Helvetica,Arial,sans-serif"><text x="94" y="40" text-anchor="middle" font-size="15" fill="#2a5a8c">-</text><text x="146" y="40" text-anchor="middle" font-size="15" fill="#2a5a8c">G</text><text x="198" y="40" text-anchor="middle" font-size="15" fill="#2a5a8c">C</text><text x="250" y="40" text-anchor="middle" font-size="15" fill="#2a5a8c">A</text><text x="302" y="40" text-anchor="middle" font-size="15" fill="#2a5a8c">T</text><text x="46" y="72" text-anchor="middle" font-size="15" fill="#2a5a8c">-</text><text x="46" y="114" text-anchor="middle" font-size="15" fill="#2a5a8c">G</text><text x="46" y="156" text-anchor="middle" font-size="15" fill="#2a5a8c">C</text><text x="46" y="198" text-anchor="middle" font-size="15" fill="#2a5a8c">T</text><rect x="70" y="48" width="48" height="38" rx="4" fill="#f7f3ee" stroke="#b56a3a" stroke-width="2"/><text x="94" y="72" text-anchor="middle" font-size="15" fill="#1c2430">0</text><rect x="122" y="48" width="48" height="38" rx="4" fill="#eef3f8" stroke="#d8dce3" stroke-width="2"/><text x="146" y="72" text-anchor="middle" font-size="15" fill="#1c2430">-1</text><rect x="174" y="48" width="48" height="38" rx="4" fill="#eef3f8" stroke="#d8dce3" stroke-width="2"/><text x="198" y="72" text-anchor="middle" font-size="15" fill="#1c2430">-2</text><rect x="226" y="48" width="48" height="38" rx="4" fill="#eef3f8" stroke="#d8dce3" stroke-width="2"/><text x="250" y="72" text-anchor="middle" font-size="15" fill="#1c2430">-3</text><rect x="278" y="48" width="48" height="38" rx="4" fill="#eef3f8" stroke="#d8dce3" stroke-width="2"/><text x="302" y="72" text-anchor="middle" font-size="15" fill="#1c2430">-4</text><rect x="70" y="90" width="48" height="38" rx="4" fill="#eef3f8" stroke="#d8dce3" stroke-width="2"/><text x="94" y="114" text-anchor="middle" font-size="15" fill="#1c2430">-1</text><rect x="122" y="90" width="48" height="38" rx="4" fill="#f7f3ee" stroke="#b56a3a" stroke-width="2"/><text x="146" y="114" text-anchor="middle" font-size="15" fill="#1c2430">1</text><rect x="174" y="90" width="48" height="38" rx="4" fill="#eef3f8" stroke="#d8dce3" stroke-width="2"/><text x="198" y="114" text-anchor="middle" font-size="15" fill="#1c2430">0</text><rect x="226" y="90" width="48" height="38" rx="4" fill="#eef3f8" stroke="#d8dce3" stroke-width="2"/><text x="250" y="114" text-anchor="middle" font-size="15" fill="#1c2430">-1</text><rect x="278" y="90" width="48" height="38" rx="4" fill="#eef3f8" stroke="#d8dce3" stroke-width="2"/><text x="302" y="114" text-anchor="middle" font-size="15" fill="#1c2430">-2</text><rect x="70" y="132" width="48" height="38" rx="4" fill="#eef3f8" stroke="#d8dce3" stroke-width="2"/><text x="94" y="156" text-anchor="middle" font-size="15" fill="#1c2430">-2</text><rect x="122" y="132" width="48" height="38" rx="4" fill="#eef3f8" stroke="#d8dce3" stroke-width="2"/><text x="146" y="156" text-anchor="middle" font-size="15" fill="#1c2430">0</text><rect x="174" y="132" width="48" height="38" rx="4" fill="#f7f3ee" stroke="#b56a3a" stroke-width="2"/><text x="198" y="156" text-anchor="middle" font-size="15" fill="#1c2430">2</text><rect x="226" y="132" width="48" height="38" rx="4" fill="#f7f3ee" stroke="#b56a3a" stroke-width="2"/><text x="250" y="156" text-anchor="middle" font-size="15" fill="#1c2430">1</text><rect x="278" y="132" width="48" height="38" rx="4" fill="#eef3f8" stroke="#d8dce3" stroke-width="2"/><text x="302" y="156" text-anchor="middle" font-size="15" fill="#1c2430">0</text><rect x="70" y="174" width="48" height="38" rx="4" fill="#eef3f8" stroke="#d8dce3" stroke-width="2"/><text x="94" y="198" text-anchor="middle" font-size="15" fill="#1c2430">-3</text><rect x="122" y="174" width="48" height="38" rx="4" fill="#eef3f8" stroke="#d8dce3" stroke-width="2"/><text x="146" y="198" text-anchor="middle" font-size="15" fill="#1c2430">-1</text><rect x="174" y="174" width="48" height="38" rx="4" fill="#eef3f8" stroke="#d8dce3" stroke-width="2"/><text x="198" y="198" text-anchor="middle" font-size="15" fill="#1c2430">1</text><rect x="226" y="174" width="48" height="38" rx="4" fill="#eef3f8" stroke="#d8dce3" stroke-width="2"/><text x="250" y="198" text-anchor="middle" font-size="15" fill="#1c2430">1</text><rect x="278" y="174" width="48" height="38" rx="4" fill="#f7f3ee" stroke="#b56a3a" stroke-width="2"/><text x="302" y="198" text-anchor="middle" font-size="15" fill="#1c2430">2</text></g>
  <line x1="94" y1="67" x2="146" y2="109" stroke="#b56a3a" stroke-width="2" marker-end="url(#nw)"/>
  <line x1="146" y1="109" x2="198" y2="151" stroke="#b56a3a" stroke-width="2" marker-end="url(#nw)"/>
  <line x1="198" y1="151" x2="250" y2="151" stroke="#b56a3a" stroke-width="2" marker-end="url(#nw)"/>
  <line x1="250" y1="151" x2="302" y2="193" stroke="#b56a3a" stroke-width="2" marker-end="url(#nw)"/>
  <text x="210" y="228" text-anchor="middle" font-family="Helvetica,Arial,sans-serif" font-size="13" fill="#1c2430">GC-T / GCAT    score +1+1-1+1 = 2</text>

</svg>
