<svg xmlns="http://www.w3.org/2000/svg" viewBox="0 0 740 352" width="740" height="352">
  <rect width="740" height="352" fill="#ffffff"/>
  <text x="370" y="18" text-anchor="middle" font-family="Helvetica,Arial,sans-serif" font-size="14" fill="#6b7380">A tour is a cycle. Starting at A or at B does not make a new tour.</text>
  <defs><marker id="t4a" markerWidth="9" markerHeight="9" refX="8" refY="4.5" orient="auto"><path d="M0,0 L9,4.5 L0,9 Z" fill="#b56a3a"/></marker></defs>
  <defs><marker id="t4b" markerWidth="9" markerHeight="9" refX="8" refY="4.5" orient="auto"><path d="M0,0 L9,4.5 L0,9 Z" fill="#b56a3a"/></marker></defs>
  <defs><marker id="t41" markerWidth="9" markerHeight="9" refX="8" refY="4.5" orient="auto"><path d="M0,0 L9,4.5 L0,9 Z" fill="#2a5a8c"/></marker></defs>
  <defs><marker id="t42" markerWidth="9" markerHeight="9" refX="8" refY="4.5" orient="auto"><path d="M0,0 L9,4.5 L0,9 Z" fill="#2a5a8c"/></marker></defs>
  <defs><marker id="t43" markerWidth="9" markerHeight="9" refX="8" refY="4.5" orient="auto"><path d="M0,0 L9,4.5 L0,9 Z" fill="#2a5a8c"/></marker></defs>
  <path d="M20 71 L47 40 L81 62 L129 34 L190 56 L251 36 L319 53 L360 44 L360 78 L20 78 Z" fill="#c5ccd6"/>
  <path d="M20 155 C 122 136, 224 164, 360 146 L360 183 L20 183 Z" fill="#d8dce3"/>
  <path d="M28 113 C 105 101, 190 127, 352 113" fill="none" stroke="#c5d6e8" stroke-width="10" stroke-linecap="round"/>
  <text x="190.0" y="42" text-anchor="middle" font-family="Helvetica,Arial,sans-serif" font-size="12" font-weight="700" fill="#b56a3a">written from A</text>
  <line x1="106.79364295141379" y1="86.50945070221238" x2="273.2063570485862" y2="81.09054929778763" stroke="#b56a3a" stroke-width="2" marker-end="url(#t4a)"/>
  <line x1="286.57625749165135" y1="92.62081856739182" x2="290.62374250834864" y2="127.67918143260817" stroke="#b56a3a" stroke-width="2" marker-end="url(#t4a)"/>
  <line x1="280.0015902097645" y1="139.79535226024018" x2="113.5984097902355" y2="142.5046477397598" stroke="#b56a3a" stroke-width="2" marker-end="url(#t4a)"/>
  <line x1="100.14837358060313" y1="130.78812438200814" x2="96.25162641939686" y2="98.81187561799187" stroke="#b56a3a" stroke-width="2" marker-end="url(#t4a)"/>
  <circle cx="95" cy="87" r="9" fill="#b56a3a"/>
  <text x="94.8" y="72.9" text-anchor="middle" font-family="Helvetica,Arial,sans-serif" font-size="13" font-weight="700" fill="#1c2430">A</text>
  <circle cx="285" cy="81" r="9" fill="#1c2430"/>
  <text x="285.2" y="66.7" text-anchor="middle" font-family="Helvetica,Arial,sans-serif" font-size="13" font-weight="700" fill="#1c2430">B</text>
  <circle cx="292" cy="140" r="9" fill="#1c2430"/>
  <text x="292.0" y="125.6" text-anchor="middle" font-family="Helvetica,Arial,sans-serif" font-size="13" font-weight="700" fill="#1c2430">C</text>
  <circle cx="102" cy="143" r="9" fill="#1c2430"/>
  <text x="101.6" y="128.7" text-anchor="middle" font-family="Helvetica,Arial,sans-serif" font-size="13" font-weight="700" fill="#1c2430">D</text>
  <text x="190.0" y="177" text-anchor="middle" font-family="Helvetica,Arial,sans-serif" font-size="11" font-weight="700" fill="#6b7380">A-B-C-D-A</text>
  <path d="M380 71 L407 40 L441 62 L489 34 L550 56 L611 36 L679 53 L720 44 L720 78 L380 78 Z" fill="#c5ccd6"/>
  <path d="M380 155 C 482 136, 584 164, 720 146 L720 183 L380 183 Z" fill="#d8dce3"/>
  <path d="M388 113 C 465 101, 550 127, 712 113" fill="none" stroke="#c5d6e8" stroke-width="10" stroke-linecap="round"/>
  <text x="550.0" y="42" text-anchor="middle" font-family="Helvetica,Arial,sans-serif" font-size="12" font-weight="700" fill="#b56a3a">written from B</text>
  <line x1="646.5762574916514" y1="92.62081856739182" x2="650.6237425083486" y2="127.67918143260817" stroke="#b56a3a" stroke-width="2" marker-end="url(#t4b)"/>
  <line x1="640.0015902097645" y1="139.79535226024018" x2="473.5984097902355" y2="142.5046477397598" stroke="#b56a3a" stroke-width="2" marker-end="url(#t4b)"/>
  <line x1="460.14837358060316" y1="130.78812438200814" x2="456.25162641939687" y2="98.81187561799187" stroke="#b56a3a" stroke-width="2" marker-end="url(#t4b)"/>
  <line x1="466.7936429514138" y1="86.50945070221238" x2="633.2063570485863" y2="81.09054929778763" stroke="#b56a3a" stroke-width="2" marker-end="url(#t4b)"/>
  <circle cx="455" cy="87" r="9" fill="#1c2430"/>
  <text x="454.8" y="72.9" text-anchor="middle" font-family="Helvetica,Arial,sans-serif" font-size="13" font-weight="700" fill="#1c2430">A</text>
  <circle cx="645" cy="81" r="9" fill="#b56a3a"/>
  <text x="645.2" y="66.7" text-anchor="middle" font-family="Helvetica,Arial,sans-serif" font-size="13" font-weight="700" fill="#1c2430">B</text>
  <circle cx="652" cy="140" r="9" fill="#1c2430"/>
  <text x="652.0" y="125.6" text-anchor="middle" font-family="Helvetica,Arial,sans-serif" font-size="13" font-weight="700" fill="#1c2430">C</text>
  <circle cx="462" cy="143" r="9" fill="#1c2430"/>
  <text x="461.6" y="128.7" text-anchor="middle" font-family="Helvetica,Arial,sans-serif" font-size="13" font-weight="700" fill="#1c2430">D</text>
  <text x="550.0" y="177" text-anchor="middle" font-family="Helvetica,Arial,sans-serif" font-size="11" font-weight="700" fill="#6b7380">B-C-D-A-B  -- same edges</text>
  <text x="370" y="200" text-anchor="middle" font-family="Helvetica,Arial,sans-serif" font-size="13" font-weight="700" fill="#1c2430">The three distinct tours (direction ignored). Already (4-1)!/2 = 3.</text>
  <path d="M8 246 L27 220 L50 239 L84 215 L126 233 L168 216 L216 231 L244 223 L244 252 L8 252 Z" fill="#c5ccd6"/>
  <path d="M8 317 C 79 301, 150 324, 244 309 L244 340 L8 340 Z" fill="#d8dce3"/>
  <path d="M16 282 C 67 270, 126 296, 236 282" fill="none" stroke="#c5d6e8" stroke-width="10" stroke-linecap="round"/>
  <text x="126.0" y="224" text-anchor="middle" font-family="Helvetica,Arial,sans-serif" font-size="12" font-weight="700" fill="#2a5a8c">1. around the valley</text>
  <line x1="71.91072200833905" y1="258.9282100904709" x2="180.08927799166096" y2="254.67178990952905" stroke="#2a5a8c" stroke-width="2" marker-end="url(#t41)"/>
  <line x1="193.22136071712214" y1="266.14559733598156" x2="195.65863928287789" y2="291.65440266401845" stroke="#2a5a8c" stroke-width="2" marker-end="url(#t41)"/>
  <line x1="184.80232151687247" y1="303.8360318103521" x2="76.63767848312756" y2="305.9639681896479" stroke="#2a5a8c" stroke-width="2" marker-end="url(#t41)"/>
  <line x1="63.43585219284496" y1="294.2605683527848" x2="61.12414780715504" y2="271.3394316472152" stroke="#2a5a8c" stroke-width="2" marker-end="url(#t41)"/>
  <circle cx="60" cy="259" r="9" fill="#2a5a8c"/>
  <text x="59.92" y="245.39999999999998" text-anchor="middle" font-family="Helvetica,Arial,sans-serif" font-size="13" font-weight="700" fill="#1c2430">A</text>
  <circle cx="192" cy="254" r="9" fill="#1c2430"/>
  <text x="192.08" y="240.2" text-anchor="middle" font-family="Helvetica,Arial,sans-serif" font-size="13" font-weight="700" fill="#1c2430">B</text>
  <circle cx="197" cy="304" r="9" fill="#1c2430"/>
  <text x="196.8" y="289.6" text-anchor="middle" font-family="Helvetica,Arial,sans-serif" font-size="13" font-weight="700" fill="#1c2430">C</text>
  <circle cx="65" cy="306" r="9" fill="#1c2430"/>
  <text x="64.64" y="292.2" text-anchor="middle" font-family="Helvetica,Arial,sans-serif" font-size="13" font-weight="700" fill="#1c2430">D</text>
  <text x="126.0" y="334" text-anchor="middle" font-family="Helvetica,Arial,sans-serif" font-size="11" font-weight="700" fill="#6b7380">A-B-C-D-A</text>
  <path d="M252 246 L271 220 L294 239 L328 215 L370 233 L412 216 L460 231 L488 223 L488 252 L252 252 Z" fill="#c5ccd6"/>
  <path d="M252 317 C 323 301, 394 324, 488 309 L488 340 L252 340 Z" fill="#d8dce3"/>
  <path d="M260 282 C 311 270, 370 296, 480 282" fill="none" stroke="#c5d6e8" stroke-width="10" stroke-linecap="round"/>
  <text x="370.0" y="224" text-anchor="middle" font-family="Helvetica,Arial,sans-serif" font-size="12" font-weight="700" fill="#2a5a8c">2. both diagonals</text>
  <line x1="315.91072200833906" y1="258.9282100904709" x2="424.089277991661" y2="254.67178990952905" stroke="#2a5a8c" stroke-width="2" marker-end="url(#t42)"/>
  <line x1="424.9693303288908" y1="258.73354380804835" x2="319.7506696711092" y2="301.6664561919516" stroke="#2a5a8c" stroke-width="2" marker-end="url(#t42)"/>
  <line x1="320.63767848312756" y1="305.9639681896479" x2="428.80232151687244" y2="303.8360318103521" stroke="#2a5a8c" stroke-width="2" marker-end="url(#t42)"/>
  <line x1="429.3805979159829" y1="299.91255426568125" x2="315.33940208401714" y2="263.08744573431875" stroke="#2a5a8c" stroke-width="2" marker-end="url(#t42)"/>
  <circle cx="304" cy="259" r="9" fill="#2a5a8c"/>
  <text x="303.92" y="245.39999999999998" text-anchor="middle" font-family="Helvetica,Arial,sans-serif" font-size="13" font-weight="700" fill="#1c2430">A</text>
  <circle cx="436" cy="254" r="9" fill="#1c2430"/>
  <text x="436.08000000000004" y="240.2" text-anchor="middle" font-family="Helvetica,Arial,sans-serif" font-size="13" font-weight="700" fill="#1c2430">B</text>
  <circle cx="441" cy="304" r="9" fill="#1c2430"/>
  <text x="440.8" y="289.6" text-anchor="middle" font-family="Helvetica,Arial,sans-serif" font-size="13" font-weight="700" fill="#1c2430">C</text>
  <circle cx="309" cy="306" r="9" fill="#1c2430"/>
  <text x="308.64" y="292.2" text-anchor="middle" font-family="Helvetica,Arial,sans-serif" font-size="13" font-weight="700" fill="#1c2430">D</text>
  <text x="370.0" y="334" text-anchor="middle" font-family="Helvetica,Arial,sans-serif" font-size="11" font-weight="700" fill="#6b7380">A-B-D-C-A</text>
  <path d="M496 246 L515 220 L538 239 L572 215 L614 233 L656 216 L704 231 L732 223 L732 252 L496 252 Z" fill="#c5ccd6"/>
  <path d="M496 317 C 567 301, 638 324, 732 309 L732 340 L496 340 Z" fill="#d8dce3"/>
  <path d="M504 282 C 555 270, 614 296, 724 282" fill="none" stroke="#c5d6e8" stroke-width="10" stroke-linecap="round"/>
  <text x="614.0" y="224" text-anchor="middle" font-family="Helvetica,Arial,sans-serif" font-size="12" font-weight="700" fill="#2a5a8c">3. the other pairing</text>
  <line x1="559.339402084017" y1="263.08744573431875" x2="673.3805979159829" y2="299.91255426568125" stroke="#2a5a8c" stroke-width="2" marker-end="url(#t43)"/>
  <line x1="683.6586392828779" y1="291.65440266401845" x2="681.2213607171221" y2="266.14559733598156" stroke="#2a5a8c" stroke-width="2" marker-end="url(#t43)"/>
  <line x1="668.9693303288908" y1="258.73354380804835" x2="563.7506696711092" y2="301.6664561919516" stroke="#2a5a8c" stroke-width="2" marker-end="url(#t43)"/>
  <line x1="551.4358521928449" y1="294.2605683527848" x2="549.124147807155" y2="271.3394316472152" stroke="#2a5a8c" stroke-width="2" marker-end="url(#t43)"/>
  <circle cx="548" cy="259" r="9" fill="#2a5a8c"/>
  <text x="547.92" y="245.39999999999998" text-anchor="middle" font-family="Helvetica,Arial,sans-serif" font-size="13" font-weight="700" fill="#1c2430">A</text>
  <circle cx="680" cy="254" r="9" fill="#1c2430"/>
  <text x="680.08" y="240.2" text-anchor="middle" font-family="Helvetica,Arial,sans-serif" font-size="13" font-weight="700" fill="#1c2430">B</text>
  <circle cx="685" cy="304" r="9" fill="#1c2430"/>
  <text x="684.8" y="289.6" text-anchor="middle" font-family="Helvetica,Arial,sans-serif" font-size="13" font-weight="700" fill="#1c2430">C</text>
  <circle cx="553" cy="306" r="9" fill="#1c2430"/>
  <text x="552.64" y="292.2" text-anchor="middle" font-family="Helvetica,Arial,sans-serif" font-size="13" font-weight="700" fill="#1c2430">D</text>
  <text x="614.0" y="334" text-anchor="middle" font-family="Helvetica,Arial,sans-serif" font-size="11" font-weight="700" fill="#6b7380">A-C-B-D-A</text>

</svg>
