<svg xmlns="http://www.w3.org/2000/svg" viewBox="0 0 740 296" width="740" height="296">
  <rect width="740" height="296" fill="#ffffff"/>
  <text x="370" y="16" text-anchor="middle" font-family="Helvetica,Arial,sans-serif" font-size="14" fill="#6b7380">After that first hop, NN is left with Interlaken-Thun down the lake.</text>
  <defs><marker id="bad" markerWidth="9" markerHeight="9" refX="8" refY="4.5" orient="auto"><path d="M0,0 L9,4.5 L0,9 Z" fill="#b56a3a"/></marker></defs>
  <defs><marker id="opt" markerWidth="9" markerHeight="9" refX="8" refY="4.5" orient="auto"><path d="M0,0 L9,4.5 L0,9 Z" fill="#2a5a8c"/></marker></defs>
  <text x="185" y="36" text-anchor="middle" font-family="Helvetica,Arial,sans-serif" font-size="12" font-weight="700" fill="#b56a3a">nearest neighbor from Gunten  =  59 km</text>
  <path d="M0.0,113.2 L25.0,72.0 L47.5,100.5 L75.0,58.5 L105.0,94.5 L135.0,55.5 L170.0,88.5 L200.0,49.5 L235.0,85.5 L265.0,63.0 L300.0,96.0 L330.0,64.5 L370.0,102.0 L370.0,124.5 L0.0,124.5 Z" fill="#c5ccd6"/>
  <path d="M75.0,58.5 L90.0,78.0 L105.0,94.5 Z" fill="#8a93a0"/>
  <path d="M135.0,55.5 L155.0,79.5 L170.0,88.5 Z" fill="#8a93a0"/>
  <path d="M200.0,49.5 L215.0,73.5 L235.0,85.5 Z" fill="#1c2430" opacity="0.35"/>
  <path d="M0.0,229.5 C 90.0,214.5 200.0,243.0 370.0,223.5 L370.0,252.0 L0.0,252.0 Z" fill="#d8dce3"/>
  <ellipse cx="185.0" cy="158.2" rx="135.0" ry="39.0" fill="#c5d6e8" stroke="#2a5a8c" stroke-width="2"/>
  <ellipse cx="160.0" cy="148.5" rx="45.0" ry="7.5" fill="#eef3f8" opacity="0.45"/>
  <circle cx="60.0" cy="228.0" r="5.2" fill="#6b7380"/>
  <circle cx="67.5" cy="231.0" r="3.8" fill="#6b7380"/>
  <circle cx="54.0" cy="232.5" r="3.8" fill="#6b7380"/>
  <circle cx="300.0" cy="229.5" r="4.5" fill="#6b7380"/>
  <circle cx="309.0" cy="232.5" r="3.8" fill="#6b7380"/>
  <line x1="140.0" y1="118.0" x2="140.0" y2="198.5" stroke="#b56a3a" stroke-width="2.6" marker-end="url(#bad)"/>
  <text x="128.0" y="162.25" text-anchor="middle" font-family="Helvetica,Arial,sans-serif" font-size="12" font-weight="700" fill="#b56a3a">5</text>
  <line x1="150.0" y1="208.5" x2="230.0" y2="208.5" stroke="#b56a3a" stroke-width="2.6" marker-end="url(#bad)"/>
  <text x="190.0" y="224.5" text-anchor="middle" font-family="Helvetica,Arial,sans-serif" font-size="12" font-weight="700" fill="#b56a3a">8</text>
  <line x1="240.0" y1="198.5" x2="240.0" y2="118.0" stroke="#b56a3a" stroke-width="2.6" marker-end="url(#bad)"/>
  <text x="252.0" y="162.25" text-anchor="middle" font-family="Helvetica,Arial,sans-serif" font-size="12" font-weight="700" fill="#b56a3a">5</text>
  <line x1="248.9" y1="112.5" x2="331.1" y2="153.8" stroke="#b56a3a" stroke-width="2.6" marker-end="url(#bad)"/>
  <text x="284.61200280068823" y="147.84738248619254" text-anchor="middle" font-family="Helvetica,Arial,sans-serif" font-size="12" font-weight="700" fill="#b56a3a">8</text>
  <line x1="330.0" y1="158.2" x2="45.0" y2="158.2" stroke="#b56a3a" stroke-width="4.2" marker-end="url(#bad)"/>
  <text x="187.5" y="150.25" text-anchor="middle" font-family="Helvetica,Arial,sans-serif" font-size="12" font-weight="700" fill="#b56a3a">24 leftover</text>
  <line x1="44.0" y1="153.9" x2="131.0" y2="112.3" stroke="#b56a3a" stroke-width="2.6" marker-end="url(#bad)"/>
  <text x="92.68020161488027" y="147.9493018818394" text-anchor="middle" font-family="Helvetica,Arial,sans-serif" font-size="12" font-weight="700" fill="#b56a3a">9</text>
  <circle cx="35.0" cy="158.2" r="7" fill="#1c2430" stroke="#f4f5f7" stroke-width="1.5"/>
  <text x="23.0" y="163.25" text-anchor="end" font-family="Helvetica,Arial,sans-serif" font-size="11" font-weight="700" fill="#1c2430">Thun</text>
  <circle cx="140.0" cy="108.0" r="7" fill="#b56a3a" stroke="#f4f5f7" stroke-width="1.5"/>
  <text x="140.0" y="94.0" text-anchor="middle" font-family="Helvetica,Arial,sans-serif" font-size="11" font-weight="700" fill="#1c2430">Gunten</text>
  <circle cx="240.0" cy="108.0" r="7" fill="#1c2430" stroke="#f4f5f7" stroke-width="1.5"/>
  <text x="240.0" y="94.0" text-anchor="middle" font-family="Helvetica,Arial,sans-serif" font-size="11" font-weight="700" fill="#1c2430">Merligen</text>
  <circle cx="340.0" cy="158.2" r="7" fill="#1c2430" stroke="#f4f5f7" stroke-width="1.5"/>
  <text x="352.0" y="163.25" text-anchor="start" font-family="Helvetica,Arial,sans-serif" font-size="11" font-weight="700" fill="#1c2430">Interlaken</text>
  <circle cx="240.0" cy="208.5" r="7" fill="#1c2430" stroke="#f4f5f7" stroke-width="1.5"/>
  <text x="240.0" y="228.5" text-anchor="middle" font-family="Helvetica,Arial,sans-serif" font-size="11" font-weight="700" fill="#1c2430">Spiez</text>
  <circle cx="140.0" cy="208.5" r="7" fill="#1c2430" stroke="#f4f5f7" stroke-width="1.5"/>
  <text x="140.0" y="228.5" text-anchor="middle" font-family="Helvetica,Arial,sans-serif" font-size="11" font-weight="700" fill="#1c2430">Faulensee</text>
  <text x="555" y="36" text-anchor="middle" font-family="Helvetica,Arial,sans-serif" font-size="12" font-weight="700" fill="#2a5a8c">walk the shore  =  50 km</text>
  <path d="M370.0,113.2 L395.0,72.0 L417.5,100.5 L445.0,58.5 L475.0,94.5 L505.0,55.5 L540.0,88.5 L570.0,49.5 L605.0,85.5 L635.0,63.0 L670.0,96.0 L700.0,64.5 L740.0,102.0 L740.0,124.5 L370.0,124.5 Z" fill="#c5ccd6"/>
  <path d="M445.0,58.5 L460.0,78.0 L475.0,94.5 Z" fill="#8a93a0"/>
  <path d="M505.0,55.5 L525.0,79.5 L540.0,88.5 Z" fill="#8a93a0"/>
  <path d="M570.0,49.5 L585.0,73.5 L605.0,85.5 Z" fill="#1c2430" opacity="0.35"/>
  <path d="M370.0,229.5 C 460.0,214.5 570.0,243.0 740.0,223.5 L740.0,252.0 L370.0,252.0 Z" fill="#d8dce3"/>
  <ellipse cx="555.0" cy="158.2" rx="135.0" ry="39.0" fill="#c5d6e8" stroke="#2a5a8c" stroke-width="2"/>
  <ellipse cx="530.0" cy="148.5" rx="45.0" ry="7.5" fill="#eef3f8" opacity="0.45"/>
  <circle cx="430.0" cy="228.0" r="5.2" fill="#6b7380"/>
  <circle cx="437.5" cy="231.0" r="3.8" fill="#6b7380"/>
  <circle cx="424.0" cy="232.5" r="3.8" fill="#6b7380"/>
  <circle cx="670.0" cy="229.5" r="4.5" fill="#6b7380"/>
  <circle cx="679.0" cy="232.5" r="3.8" fill="#6b7380"/>
  <line x1="414.0" y1="153.9" x2="501.0" y2="112.3" stroke="#2a5a8c" stroke-width="2.6" marker-end="url(#opt)"/>
  <text x="462.6802016148803" y="147.9493018818394" text-anchor="middle" font-family="Helvetica,Arial,sans-serif" font-size="12" font-weight="700" fill="#2a5a8c">9</text>
  <line x1="520.0" y1="108.0" x2="600.0" y2="108.0" stroke="#2a5a8c" stroke-width="2.6" marker-end="url(#opt)"/>
  <text x="560.0" y="124.0" text-anchor="middle" font-family="Helvetica,Arial,sans-serif" font-size="12" font-weight="700" fill="#2a5a8c">8</text>
  <line x1="618.9" y1="112.5" x2="701.1" y2="153.8" stroke="#2a5a8c" stroke-width="2.6" marker-end="url(#opt)"/>
  <text x="654.6120028006883" y="147.84738248619254" text-anchor="middle" font-family="Helvetica,Arial,sans-serif" font-size="12" font-weight="700" fill="#2a5a8c">8</text>
  <line x1="701.1" y1="162.7" x2="618.9" y2="204.0" stroke="#2a5a8c" stroke-width="2.6" marker-end="url(#opt)"/>
  <text x="654.6120028006883" y="176.65261751380746" text-anchor="middle" font-family="Helvetica,Arial,sans-serif" font-size="12" font-weight="700" fill="#2a5a8c">8</text>
  <line x1="600.0" y1="208.5" x2="520.0" y2="208.5" stroke="#2a5a8c" stroke-width="2.6" marker-end="url(#opt)"/>
  <text x="560.0" y="200.5" text-anchor="middle" font-family="Helvetica,Arial,sans-serif" font-size="12" font-weight="700" fill="#2a5a8c">8</text>
  <line x1="501.0" y1="204.2" x2="414.0" y2="162.6" stroke="#2a5a8c" stroke-width="2.6" marker-end="url(#opt)"/>
  <text x="462.6802016148803" y="176.5506981181606" text-anchor="middle" font-family="Helvetica,Arial,sans-serif" font-size="12" font-weight="700" fill="#2a5a8c">9</text>
  <circle cx="405.0" cy="158.2" r="7" fill="#1c2430" stroke="#f4f5f7" stroke-width="1.5"/>
  <text x="393.0" y="163.25" text-anchor="end" font-family="Helvetica,Arial,sans-serif" font-size="11" font-weight="700" fill="#1c2430">Thun</text>
  <circle cx="510.0" cy="108.0" r="7" fill="#1c2430" stroke="#f4f5f7" stroke-width="1.5"/>
  <text x="510.0" y="94.0" text-anchor="middle" font-family="Helvetica,Arial,sans-serif" font-size="11" font-weight="700" fill="#1c2430">Gunten</text>
  <circle cx="610.0" cy="108.0" r="7" fill="#1c2430" stroke="#f4f5f7" stroke-width="1.5"/>
  <text x="610.0" y="94.0" text-anchor="middle" font-family="Helvetica,Arial,sans-serif" font-size="11" font-weight="700" fill="#1c2430">Merligen</text>
  <circle cx="710.0" cy="158.2" r="7" fill="#1c2430" stroke="#f4f5f7" stroke-width="1.5"/>
  <text x="722.0" y="163.25" text-anchor="start" font-family="Helvetica,Arial,sans-serif" font-size="11" font-weight="700" fill="#1c2430">Interlaken</text>
  <circle cx="610.0" cy="208.5" r="7" fill="#1c2430" stroke="#f4f5f7" stroke-width="1.5"/>
  <text x="610.0" y="228.5" text-anchor="middle" font-family="Helvetica,Arial,sans-serif" font-size="11" font-weight="700" fill="#1c2430">Spiez</text>
  <circle cx="510.0" cy="208.5" r="7" fill="#1c2430" stroke="#f4f5f7" stroke-width="1.5"/>
  <text x="510.0" y="228.5" text-anchor="middle" font-family="Helvetica,Arial,sans-serif" font-size="11" font-weight="700" fill="#1c2430">Faulensee</text>
  <text x="370" y="278" text-anchor="middle" font-family="Helvetica,Arial,sans-serif" font-size="13" fill="#1c2430">The 24 km leftover is the bill for the 5 km crossing. Shore never takes that hop: 50 vs 59.</text>

</svg>
